<svg xmlns="http://www.w3.org/2000/svg" xmlns:xlink="http://www.w3.org/1999/xlink" width="500" zoomAndPan="magnify" viewBox="0 0 375 374.999991" height="500" preserveAspectRatio="xMidYMid meet" version="1.0"><defs><g/><clipPath id="e238a06dd3"><path d="M 190 104 L 224.207031 104 L 224.207031 271 L 190 271 Z M 190 104 " clip-rule="nonzero"/></clipPath><clipPath id="f6bce2a9a2"><path d="M 57.707031 37.5 L 224.207031 37.5 L 224.207031 337.5 L 57.707031 337.5 Z M 57.707031 37.5 " clip-rule="nonzero"/></clipPath><clipPath id="c7faf41179"><path d="M 140.957031 117.738281 L 317.292969 117.738281 L 317.292969 278.570312 L 140.957031 278.570312 Z M 140.957031 117.738281 " clip-rule="nonzero"/></clipPath><clipPath id="15d016ca67"><path d="M 0.957031 0.738281 L 177.292969 0.738281 L 177.292969 161.570312 L 0.957031 161.570312 Z M 0.957031 0.738281 " clip-rule="nonzero"/></clipPath><clipPath id="0bdc33b41d"><rect x="0" width="178" y="0" height="162"/></clipPath><clipPath id="41c2808cac"><rect x="0" width="137" y="0" height="133"/></clipPath></defs><g clip-path="url(#e238a06dd3)"><path fill="#0a1a44" d="M 207.554688 270.75 C 207.011719 270.75 206.464844 270.722656 205.921875 270.667969 C 205.382812 270.617188 204.84375 270.535156 204.308594 270.429688 C 203.773438 270.324219 203.246094 270.191406 202.722656 270.03125 C 202.199219 269.875 201.6875 269.691406 201.183594 269.484375 C 200.679688 269.273438 200.1875 269.042969 199.707031 268.785156 C 199.226562 268.527344 198.757812 268.246094 198.304688 267.945312 C 197.851562 267.640625 197.414062 267.316406 196.992188 266.96875 C 196.570312 266.625 196.167969 266.257812 195.78125 265.875 C 195.398438 265.488281 195.03125 265.085938 194.683594 264.664062 C 194.339844 264.242188 194.015625 263.804688 193.710938 263.351562 C 193.410156 262.898438 193.128906 262.429688 192.871094 261.949219 C 192.613281 261.46875 192.382812 260.976562 192.171875 260.472656 C 191.964844 259.96875 191.78125 259.453125 191.621094 258.933594 C 191.464844 258.410156 191.332031 257.882812 191.226562 257.347656 C 191.121094 256.8125 191.039062 256.273438 190.984375 255.730469 C 190.933594 255.1875 190.90625 254.644531 190.90625 254.101562 L 190.90625 120.898438 C 190.90625 120.355469 190.933594 119.8125 190.984375 119.269531 C 191.039062 118.726562 191.121094 118.1875 191.226562 117.652344 C 191.332031 117.117188 191.464844 116.589844 191.621094 116.066406 C 191.78125 115.542969 191.964844 115.03125 192.171875 114.527344 C 192.382812 114.023438 192.613281 113.53125 192.871094 113.050781 C 193.128906 112.570312 193.410156 112.101562 193.710938 111.648438 C 194.015625 111.195312 194.339844 110.757812 194.683594 110.335938 C 195.03125 109.914062 195.398438 109.511719 195.78125 109.125 C 196.167969 108.742188 196.570312 108.375 196.992188 108.03125 C 197.414062 107.683594 197.851562 107.359375 198.304688 107.054688 C 198.757812 106.753906 199.226562 106.472656 199.707031 106.214844 C 200.1875 105.957031 200.679688 105.726562 201.183594 105.515625 C 201.6875 105.308594 202.199219 105.125 202.722656 104.96875 C 203.246094 104.808594 203.773438 104.675781 204.308594 104.570312 C 204.84375 104.464844 205.382812 104.382812 205.921875 104.332031 C 206.464844 104.277344 207.011719 104.25 207.554688 104.25 C 208.101562 104.25 208.644531 104.277344 209.1875 104.332031 C 209.730469 104.382812 210.269531 104.464844 210.804688 104.570312 C 211.339844 104.675781 211.867188 104.808594 212.390625 104.96875 C 212.910156 105.125 213.421875 105.308594 213.925781 105.515625 C 214.429688 105.726562 214.921875 105.957031 215.40625 106.214844 C 215.886719 106.472656 216.351562 106.753906 216.804688 107.054688 C 217.257812 107.359375 217.695312 107.683594 218.117188 108.03125 C 218.539062 108.375 218.945312 108.742188 219.328125 109.125 C 219.714844 109.511719 220.082031 109.914062 220.425781 110.335938 C 220.773438 110.757812 221.097656 111.195312 221.398438 111.648438 C 221.703125 112.101562 221.984375 112.570312 222.238281 113.050781 C 222.496094 113.53125 222.730469 114.023438 222.9375 114.527344 C 223.148438 115.03125 223.332031 115.542969 223.488281 116.066406 C 223.648438 116.589844 223.78125 117.117188 223.886719 117.652344 C 223.992188 118.1875 224.070312 118.726562 224.125 119.269531 C 224.179688 119.8125 224.207031 120.355469 224.207031 120.898438 L 224.207031 254.101562 C 224.207031 254.644531 224.179688 255.1875 224.125 255.730469 C 224.070312 256.273438 223.992188 256.8125 223.886719 257.347656 C 223.78125 257.882812 223.648438 258.410156 223.488281 258.933594 C 223.332031 259.453125 223.148438 259.96875 222.9375 260.472656 C 222.730469 260.976562 222.496094 261.46875 222.238281 261.949219 C 221.984375 262.429688 221.703125 262.898438 221.398438 263.351562 C 221.097656 263.804688 220.773438 264.242188 220.425781 264.664062 C 220.082031 265.085938 219.714844 265.488281 219.328125 265.875 C 218.945312 266.257812 218.539062 266.625 218.117188 266.96875 C 217.695312 267.316406 217.257812 267.640625 216.804688 267.945312 C 216.351562 268.246094 215.886719 268.527344 215.40625 268.785156 C 214.921875 269.039062 214.429688 269.273438 213.925781 269.484375 C 213.421875 269.691406 212.910156 269.875 212.390625 270.03125 C 211.867188 270.191406 211.339844 270.324219 210.804688 270.429688 C 210.269531 270.535156 209.730469 270.617188 209.1875 270.667969 C 208.644531 270.722656 208.101562 270.75 207.554688 270.75 Z M 207.554688 270.75 " fill-opacity="1" fill-rule="nonzero"/></g><g clip-path="url(#f6bce2a9a2)"><path fill="#0a1a44" d="M 140.957031 337.351562 C 139.59375 337.347656 138.234375 337.3125 136.871094 337.246094 C 135.511719 337.175781 134.152344 337.074219 132.796875 336.941406 C 131.441406 336.804688 130.09375 336.636719 128.746094 336.4375 C 127.398438 336.234375 126.054688 336.003906 124.722656 335.734375 C 123.386719 335.46875 122.058594 335.167969 120.734375 334.835938 C 119.414062 334.503906 118.101562 334.140625 116.800781 333.746094 C 115.496094 333.347656 114.203125 332.921875 112.921875 332.460938 C 111.640625 332 110.371094 331.511719 109.113281 330.988281 C 107.851562 330.464844 106.609375 329.914062 105.378906 329.332031 C 104.148438 328.75 102.929688 328.136719 101.730469 327.492188 C 100.527344 326.851562 99.34375 326.179688 98.175781 325.476562 C 97.007812 324.777344 95.859375 324.046875 94.726562 323.292969 C 93.59375 322.535156 92.480469 321.75 91.386719 320.9375 C 90.292969 320.128906 89.21875 319.289062 88.167969 318.425781 C 87.113281 317.5625 86.082031 316.671875 85.074219 315.757812 C 84.066406 314.84375 83.078125 313.902344 82.117188 312.941406 C 81.152344 311.976562 80.214844 310.992188 79.300781 309.980469 C 78.382812 308.972656 77.496094 307.941406 76.628906 306.886719 C 75.765625 305.835938 74.929688 304.761719 74.117188 303.667969 C 73.304688 302.574219 72.519531 301.460938 71.765625 300.328125 C 71.007812 299.195312 70.277344 298.046875 69.578125 296.878906 C 68.875 295.710938 68.207031 294.527344 67.5625 293.324219 C 66.921875 292.125 66.308594 290.910156 65.722656 289.679688 C 65.140625 288.445312 64.589844 287.203125 64.066406 285.945312 C 63.546875 284.6875 63.054688 283.414062 62.59375 282.132812 C 62.136719 280.851562 61.707031 279.558594 61.3125 278.257812 C 60.914062 276.953125 60.550781 275.640625 60.21875 274.320312 C 59.886719 273 59.585938 271.671875 59.320312 270.335938 C 59.054688 269 58.820312 267.65625 58.617188 266.3125 C 58.417969 264.964844 58.25 263.613281 58.113281 262.257812 C 57.980469 260.902344 57.878906 259.542969 57.808594 258.183594 C 57.742188 256.824219 57.707031 255.460938 57.707031 254.101562 L 57.707031 120.898438 C 57.707031 119.539062 57.738281 118.175781 57.804688 116.816406 C 57.871094 115.453125 57.972656 114.097656 58.105469 112.738281 C 58.238281 111.382812 58.40625 110.03125 58.605469 108.683594 C 58.808594 107.335938 59.039062 105.996094 59.304688 104.660156 C 59.570312 103.324219 59.871094 101.992188 60.199219 100.671875 C 60.53125 99.351562 60.894531 98.039062 61.289062 96.734375 C 61.6875 95.429688 62.113281 94.136719 62.570312 92.855469 C 63.03125 91.570312 63.519531 90.300781 64.042969 89.042969 C 64.5625 87.78125 65.117188 86.539062 65.699219 85.304688 C 66.28125 84.074219 66.894531 82.859375 67.535156 81.65625 C 68.179688 80.453125 68.847656 79.269531 69.550781 78.101562 C 70.25 76.933594 70.980469 75.78125 71.734375 74.648438 C 72.492188 73.515625 73.277344 72.402344 74.089844 71.308594 C 74.898438 70.214844 75.738281 69.140625 76.601562 68.085938 C 77.46875 67.035156 78.355469 66.003906 79.273438 64.992188 C 80.1875 63.984375 81.125 62.996094 82.089844 62.035156 C 83.050781 61.070312 84.039062 60.128906 85.046875 59.214844 C 86.058594 58.300781 87.089844 57.410156 88.140625 56.546875 C 89.195312 55.683594 90.269531 54.84375 91.363281 54.03125 C 92.457031 53.222656 93.570312 52.4375 94.703125 51.679688 C 95.835938 50.921875 96.988281 50.195312 98.15625 49.492188 C 99.324219 48.792969 100.511719 48.121094 101.710938 47.480469 C 102.914062 46.835938 104.128906 46.226562 105.363281 45.644531 C 106.59375 45.058594 107.839844 44.507812 109.097656 43.988281 C 110.355469 43.464844 111.625 42.976562 112.910156 42.515625 C 114.191406 42.058594 115.484375 41.628906 116.789062 41.234375 C 118.09375 40.839844 119.40625 40.476562 120.726562 40.144531 C 122.050781 39.8125 123.378906 39.515625 124.714844 39.25 C 126.050781 38.984375 127.394531 38.75 128.742188 38.550781 C 130.089844 38.351562 131.441406 38.183594 132.796875 38.050781 C 134.152344 37.917969 135.511719 37.816406 136.871094 37.75 C 138.230469 37.683594 139.59375 37.648438 140.957031 37.648438 C 142.316406 37.648438 143.679688 37.683594 145.039062 37.75 C 146.402344 37.816406 147.761719 37.917969 149.117188 38.050781 C 150.472656 38.183594 151.824219 38.351562 153.171875 38.550781 C 154.519531 38.75 155.859375 38.984375 157.195312 39.25 C 158.535156 39.515625 159.863281 39.8125 161.183594 40.144531 C 162.503906 40.476562 163.816406 40.839844 165.121094 41.234375 C 166.425781 41.628906 167.71875 42.058594 169 42.515625 C 170.285156 42.976562 171.554688 43.464844 172.8125 43.988281 C 174.074219 44.507812 175.316406 45.058594 176.550781 45.644531 C 177.78125 46.226562 178.996094 46.835938 180.199219 47.480469 C 181.402344 48.121094 182.585938 48.792969 183.753906 49.492188 C 184.921875 50.195312 186.074219 50.921875 187.207031 51.679688 C 188.339844 52.4375 189.453125 53.222656 190.546875 54.03125 C 191.640625 54.84375 192.714844 55.683594 193.769531 56.546875 C 194.820312 57.410156 195.851562 58.300781 196.863281 59.214844 C 197.871094 60.128906 198.859375 61.070312 199.824219 62.035156 C 200.785156 62.996094 201.726562 63.984375 202.640625 64.992188 C 203.554688 66.003906 204.445312 67.035156 205.308594 68.085938 C 206.171875 69.140625 207.011719 70.214844 207.824219 71.308594 C 208.632812 72.402344 209.417969 73.515625 210.175781 74.648438 C 210.933594 75.78125 211.660156 76.933594 212.363281 78.101562 C 213.0625 79.269531 213.734375 80.453125 214.375 81.65625 C 215.019531 82.859375 215.628906 84.074219 216.210938 85.304688 C 216.796875 86.539062 217.347656 87.78125 217.867188 89.042969 C 218.390625 90.300781 218.878906 91.570312 219.339844 92.855469 C 219.796875 94.136719 220.226562 95.429688 220.621094 96.734375 C 221.015625 98.039062 221.378906 99.351562 221.710938 100.671875 C 222.042969 101.992188 222.339844 103.324219 222.605469 104.660156 C 222.871094 105.996094 223.105469 107.335938 223.304688 108.683594 C 223.503906 110.03125 223.671875 111.382812 223.804688 112.738281 C 223.9375 114.097656 224.039062 115.453125 224.105469 116.816406 C 224.171875 118.175781 224.207031 119.539062 224.207031 120.898438 L 224.207031 254.101562 C 224.203125 255.460938 224.167969 256.824219 224.101562 258.183594 C 224.03125 259.542969 223.929688 260.902344 223.796875 262.257812 C 223.660156 263.613281 223.492188 264.964844 223.292969 266.3125 C 223.089844 267.65625 222.859375 269 222.589844 270.335938 C 222.324219 271.671875 222.023438 273 221.691406 274.320312 C 221.359375 275.640625 220.996094 276.953125 220.601562 278.257812 C 220.203125 279.558594 219.777344 280.851562 219.316406 282.132812 C 218.855469 283.414062 218.367188 284.6875 217.84375 285.945312 C 217.324219 287.203125 216.769531 288.445312 216.1875 289.679688 C 215.605469 290.910156 214.992188 292.125 214.347656 293.324219 C 213.707031 294.527344 213.035156 295.710938 212.332031 296.878906 C 211.632812 298.046875 210.90625 299.199219 210.148438 300.328125 C 209.390625 301.460938 208.605469 302.574219 207.792969 303.667969 C 206.984375 304.761719 206.144531 305.835938 205.28125 306.886719 C 204.417969 307.941406 203.527344 308.972656 202.613281 309.980469 C 201.699219 310.992188 200.757812 311.976562 199.796875 312.941406 C 198.832031 313.902344 197.847656 314.84375 196.835938 315.757812 C 195.828125 316.671875 194.796875 317.5625 193.746094 318.425781 C 192.691406 319.289062 191.617188 320.128906 190.523438 320.9375 C 189.429688 321.75 188.316406 322.535156 187.183594 323.292969 C 186.054688 324.046875 184.902344 324.777344 183.734375 325.476562 C 182.566406 326.179688 181.382812 326.851562 180.179688 327.492188 C 178.980469 328.136719 177.765625 328.75 176.535156 329.332031 C 175.300781 329.914062 174.058594 330.464844 172.800781 330.988281 C 171.542969 331.511719 170.273438 332 168.988281 332.460938 C 167.707031 332.921875 166.414062 333.347656 165.113281 333.746094 C 163.808594 334.140625 162.496094 334.503906 161.175781 334.835938 C 159.855469 335.167969 158.527344 335.46875 157.191406 335.734375 C 155.855469 336.003906 154.511719 336.234375 153.167969 336.4375 C 151.820312 336.636719 150.46875 336.804688 149.113281 336.941406 C 147.757812 337.074219 146.398438 337.175781 145.039062 337.246094 C 143.679688 337.3125 142.316406 337.347656 140.957031 337.351562 Z M 140.957031 70.949219 C 139.320312 70.953125 137.6875 71.035156 136.0625 71.195312 C 134.433594 71.355469 132.816406 71.597656 131.214844 71.917969 C 129.609375 72.238281 128.027344 72.636719 126.460938 73.113281 C 124.898438 73.585938 123.359375 74.140625 121.847656 74.765625 C 120.335938 75.390625 118.863281 76.089844 117.417969 76.863281 C 115.976562 77.632812 114.578125 78.472656 113.21875 79.382812 C 111.855469 80.292969 110.546875 81.265625 109.28125 82.304688 C 108.015625 83.339844 106.808594 84.4375 105.648438 85.59375 C 104.492188 86.75 103.398438 87.960938 102.359375 89.226562 C 101.320312 90.488281 100.347656 91.800781 99.4375 93.160156 C 98.53125 94.519531 97.691406 95.921875 96.917969 97.363281 C 96.148438 98.804688 95.449219 100.28125 94.820312 101.792969 C 94.195312 103.304688 93.644531 104.839844 93.167969 106.40625 C 92.691406 107.96875 92.292969 109.554688 91.972656 111.160156 C 91.652344 112.761719 91.414062 114.378906 91.25 116.003906 C 91.089844 117.632812 91.007812 119.265625 91.003906 120.898438 L 91.003906 254.101562 C 91.003906 255.734375 91.085938 257.367188 91.246094 258.996094 C 91.40625 260.625 91.644531 262.242188 91.964844 263.84375 C 92.285156 265.449219 92.683594 267.035156 93.15625 268.601562 C 93.632812 270.164062 94.183594 271.703125 94.808594 273.214844 C 95.433594 274.726562 96.132812 276.203125 96.902344 277.644531 C 97.675781 279.089844 98.515625 280.492188 99.425781 281.851562 C 100.332031 283.210938 101.304688 284.523438 102.34375 285.789062 C 103.382812 287.050781 104.480469 288.261719 105.636719 289.421875 C 106.792969 290.578125 108.003906 291.675781 109.269531 292.710938 C 110.53125 293.75 111.84375 294.722656 113.203125 295.632812 C 114.566406 296.539062 115.964844 297.378906 117.410156 298.152344 C 118.851562 298.921875 120.328125 299.621094 121.839844 300.246094 C 123.351562 300.875 124.890625 301.425781 126.457031 301.898438 C 128.023438 302.375 129.605469 302.769531 131.210938 303.089844 C 132.816406 303.410156 134.433594 303.648438 136.058594 303.808594 C 137.6875 303.96875 139.320312 304.050781 140.957031 304.050781 C 142.589844 304.050781 144.222656 303.96875 145.851562 303.808594 C 147.480469 303.648438 149.097656 303.410156 150.699219 303.089844 C 152.304688 302.769531 153.890625 302.375 155.457031 301.898438 C 157.019531 301.425781 158.558594 300.875 160.070312 300.246094 C 161.582031 299.621094 163.058594 298.921875 164.503906 298.152344 C 165.945312 297.378906 167.347656 296.539062 168.707031 295.632812 C 170.066406 294.722656 171.378906 293.75 172.644531 292.710938 C 173.910156 291.675781 175.117188 290.578125 176.277344 289.421875 C 177.433594 288.261719 178.53125 287.050781 179.566406 285.789062 C 180.605469 284.523438 181.578125 283.210938 182.488281 281.851562 C 183.398438 280.492188 184.238281 279.089844 185.007812 277.644531 C 185.777344 276.203125 186.476562 274.726562 187.105469 273.214844 C 187.730469 271.703125 188.28125 270.164062 188.753906 268.601562 C 189.230469 267.035156 189.625 265.449219 189.945312 263.84375 C 190.265625 262.242188 190.503906 260.625 190.664062 258.996094 C 190.824219 257.367188 190.90625 255.734375 190.90625 254.101562 L 190.90625 120.898438 C 190.902344 119.265625 190.824219 117.632812 190.660156 116.003906 C 190.5 114.378906 190.257812 112.761719 189.9375 111.160156 C 189.617188 109.554688 189.21875 107.96875 188.742188 106.40625 C 188.269531 104.839844 187.71875 103.304688 187.089844 101.792969 C 186.464844 100.28125 185.765625 98.804688 184.992188 97.363281 C 184.222656 95.921875 183.382812 94.519531 182.472656 93.160156 C 181.5625 91.800781 180.589844 90.488281 179.550781 89.226562 C 178.515625 87.960938 177.417969 86.75 176.261719 85.59375 C 175.105469 84.4375 173.894531 83.339844 172.628906 82.304688 C 171.367188 81.265625 170.054688 80.292969 168.695312 79.382812 C 167.335938 78.472656 165.933594 77.632812 164.492188 76.863281 C 163.050781 76.089844 161.574219 75.390625 160.0625 74.765625 C 158.550781 74.140625 157.015625 73.585938 155.449219 73.113281 C 153.886719 72.636719 152.300781 72.238281 150.695312 71.917969 C 149.09375 71.597656 147.476562 71.355469 145.851562 71.195312 C 144.222656 71.035156 142.589844 70.953125 140.957031 70.949219 Z M 140.957031 70.949219 " fill-opacity="1" fill-rule="nonzero"/></g><g clip-path="url(#c7faf41179)"><g transform="matrix(1, 0, 0, 1, 140, 117)"><g clip-path="url(#0bdc33b41d)"><g clip-path="url(#15d016ca67)"><path fill="#ffffff" d="M 0.957031 0.738281 L 177.496094 0.738281 L 177.496094 161.570312 L 0.957031 161.570312 Z M 0.957031 0.738281 " fill-opacity="1" fill-rule="nonzero"/></g></g></g></g><g transform="matrix(1, 0, 0, 1, 160, 131)"><g clip-path="url(#41c2808cac)"><g fill="#1a2a5f" fill-opacity="1"><g transform="translate(1.684423, 31.948392)"><g><path d="M 20.890625 -3.609375 L 20.890625 0 L 1.34375 0 L 1.34375 -2.84375 L 14.828125 -19.328125 L 1.578125 -19.328125 L 1.578125 -22.921875 L 20.46875 -22.921875 L 20.46875 -20.078125 L 6.96875 -3.609375 Z M 20.890625 -3.609375 "/></g></g></g><g fill="#1a2a5f" fill-opacity="1"><g transform="translate(23.070926, 31.948392)"><g><path d="M 19.125 -8.640625 C 19.125 -8.359375 19.101562 -7.957031 19.0625 -7.4375 L 5.34375 -7.4375 C 5.582031 -6.144531 6.207031 -5.125 7.21875 -4.375 C 8.238281 -3.625 9.5 -3.25 11 -3.25 C 12.925781 -3.25 14.507812 -3.878906 15.75 -5.140625 L 17.953125 -2.625 C 17.160156 -1.6875 16.164062 -0.972656 14.96875 -0.484375 C 13.769531 -0.00390625 12.414062 0.234375 10.90625 0.234375 C 8.988281 0.234375 7.296875 -0.144531 5.828125 -0.90625 C 4.367188 -1.675781 3.238281 -2.742188 2.4375 -4.109375 C 1.644531 -5.472656 1.25 -7.019531 1.25 -8.75 C 1.25 -10.445312 1.632812 -11.976562 2.40625 -13.34375 C 3.175781 -14.707031 4.25 -15.769531 5.625 -16.53125 C 7.007812 -17.300781 8.5625 -17.6875 10.28125 -17.6875 C 11.988281 -17.6875 13.507812 -17.304688 14.84375 -16.546875 C 16.1875 -15.796875 17.234375 -14.738281 17.984375 -13.375 C 18.742188 -12.007812 19.125 -10.429688 19.125 -8.640625 Z M 10.28125 -14.40625 C 8.96875 -14.40625 7.859375 -14.015625 6.953125 -13.234375 C 6.046875 -12.460938 5.5 -11.4375 5.3125 -10.15625 L 15.234375 -10.15625 C 15.054688 -11.414062 14.519531 -12.4375 13.625 -13.21875 C 12.726562 -14.007812 11.613281 -14.40625 10.28125 -14.40625 Z M 10.28125 -14.40625 "/></g></g></g><g fill="#1a2a5f" fill-opacity="1"><g transform="translate(43.442137, 31.948392)"><g><path d="M 6.578125 -14.9375 C 7.753906 -16.769531 9.832031 -17.6875 12.8125 -17.6875 L 12.8125 -13.78125 C 12.457031 -13.851562 12.140625 -13.890625 11.859375 -13.890625 C 10.265625 -13.890625 9.019531 -13.425781 8.125 -12.5 C 7.226562 -11.570312 6.78125 -10.234375 6.78125 -8.484375 L 6.78125 0 L 2.6875 0 L 2.6875 -17.484375 L 6.578125 -17.484375 Z M 6.578125 -14.9375 "/></g></g></g><g fill="#1a2a5f" fill-opacity="1"><g transform="translate(56.870115, 31.948392)"><g><path d="M 10.546875 0.234375 C 8.773438 0.234375 7.179688 -0.144531 5.765625 -0.90625 C 4.347656 -1.675781 3.238281 -2.742188 2.4375 -4.109375 C 1.644531 -5.472656 1.25 -7.019531 1.25 -8.75 C 1.25 -10.46875 1.644531 -12.003906 2.4375 -13.359375 C 3.238281 -14.710938 4.347656 -15.769531 5.765625 -16.53125 C 7.179688 -17.300781 8.773438 -17.6875 10.546875 -17.6875 C 12.335938 -17.6875 13.941406 -17.300781 15.359375 -16.53125 C 16.773438 -15.769531 17.878906 -14.710938 18.671875 -13.359375 C 19.472656 -12.003906 19.875 -10.46875 19.875 -8.75 C 19.875 -7.019531 19.472656 -5.472656 18.671875 -4.109375 C 17.878906 -2.742188 16.773438 -1.675781 15.359375 -0.90625 C 13.941406 -0.144531 12.335938 0.234375 10.546875 0.234375 Z M 10.546875 -3.28125 C 12.054688 -3.28125 13.300781 -3.78125 14.28125 -4.78125 C 15.257812 -5.78125 15.75 -7.101562 15.75 -8.75 C 15.75 -10.382812 15.257812 -11.703125 14.28125 -12.703125 C 13.300781 -13.710938 12.054688 -14.21875 10.546875 -14.21875 C 9.035156 -14.21875 7.796875 -13.710938 6.828125 -12.703125 C 5.859375 -11.703125 5.375 -10.382812 5.375 -8.75 C 5.375 -7.101562 5.859375 -5.78125 6.828125 -4.78125 C 7.796875 -3.78125 9.035156 -3.28125 10.546875 -3.28125 Z M 10.546875 -3.28125 "/></g></g></g><g fill="#1a2a5f" fill-opacity="1"><g transform="translate(1.684423, 77.800041)"><g><path d="M 7.34375 -19.359375 L 7.34375 -12.375 L 18.40625 -12.375 L 18.40625 -8.78125 L 7.34375 -8.78125 L 7.34375 0 L 3.078125 0 L 3.078125 -22.921875 L 19.8125 -22.921875 L 19.8125 -19.359375 Z M 7.34375 -19.359375 "/></g></g></g><g fill="#1a2a5f" fill-opacity="1"><g transform="translate(22.055634, 77.800041)"><g><path d="M 19.609375 -17.484375 L 19.609375 0 L 15.71875 0 L 15.71875 -2.234375 C 15.0625 -1.441406 14.242188 -0.832031 13.265625 -0.40625 C 12.285156 0.0195312 11.226562 0.234375 10.09375 0.234375 C 7.75 0.234375 5.90625 -0.414062 4.5625 -1.71875 C 3.21875 -3.019531 2.546875 -4.945312 2.546875 -7.5 L 2.546875 -17.484375 L 6.640625 -17.484375 L 6.640625 -8.0625 C 6.640625 -6.488281 6.992188 -5.3125 7.703125 -4.53125 C 8.421875 -3.757812 9.429688 -3.375 10.734375 -3.375 C 12.203125 -3.375 13.367188 -3.828125 14.234375 -4.734375 C 15.097656 -5.640625 15.53125 -6.941406 15.53125 -8.640625 L 15.53125 -17.484375 Z M 19.609375 -17.484375 "/></g></g></g><g fill="#1a2a5f" fill-opacity="1"><g transform="translate(44.359166, 77.800041)"><g><path d="M 12.609375 -17.6875 C 14.816406 -17.6875 16.582031 -17.039062 17.90625 -15.75 C 19.238281 -14.46875 19.90625 -12.554688 19.90625 -10.015625 L 19.90625 0 L 15.8125 0 L 15.8125 -9.5 C 15.8125 -11.03125 15.453125 -12.179688 14.734375 -12.953125 C 14.015625 -13.722656 12.988281 -14.109375 11.65625 -14.109375 C 10.15625 -14.109375 8.96875 -13.65625 8.09375 -12.75 C 7.21875 -11.84375 6.78125 -10.539062 6.78125 -8.84375 L 6.78125 0 L 2.6875 0 L 2.6875 -17.484375 L 6.578125 -17.484375 L 6.578125 -15.234375 C 7.253906 -16.035156 8.101562 -16.644531 9.125 -17.0625 C 10.15625 -17.476562 11.316406 -17.6875 12.609375 -17.6875 Z M 12.609375 -17.6875 "/></g></g></g><g fill="#1a2a5f" fill-opacity="1"><g transform="translate(66.95746, 77.800041)"><g><path d="M 19.8125 -24.296875 L 19.8125 0 L 15.890625 0 L 15.890625 -2.265625 C 15.210938 -1.429688 14.375 -0.804688 13.375 -0.390625 C 12.382812 0.0234375 11.289062 0.234375 10.09375 0.234375 C 8.40625 0.234375 6.890625 -0.132812 5.546875 -0.875 C 4.203125 -1.625 3.148438 -2.679688 2.390625 -4.046875 C 1.628906 -5.410156 1.25 -6.976562 1.25 -8.75 C 1.25 -10.507812 1.628906 -12.066406 2.390625 -13.421875 C 3.148438 -14.773438 4.203125 -15.820312 5.546875 -16.5625 C 6.890625 -17.3125 8.40625 -17.6875 10.09375 -17.6875 C 11.25 -17.6875 12.304688 -17.488281 13.265625 -17.09375 C 14.222656 -16.695312 15.039062 -16.109375 15.71875 -15.328125 L 15.71875 -24.296875 Z M 10.578125 -3.28125 C 11.554688 -3.28125 12.4375 -3.503906 13.21875 -3.953125 C 14.007812 -4.398438 14.632812 -5.035156 15.09375 -5.859375 C 15.550781 -6.691406 15.78125 -7.65625 15.78125 -8.75 C 15.78125 -9.832031 15.550781 -10.789062 15.09375 -11.625 C 14.632812 -12.457031 14.007812 -13.097656 13.21875 -13.546875 C 12.4375 -13.992188 11.554688 -14.21875 10.578125 -14.21875 C 9.597656 -14.21875 8.710938 -13.992188 7.921875 -13.546875 C 7.140625 -13.097656 6.519531 -12.457031 6.0625 -11.625 C 5.601562 -10.789062 5.375 -9.832031 5.375 -8.75 C 5.375 -7.65625 5.601562 -6.691406 6.0625 -5.859375 C 6.519531 -5.035156 7.140625 -4.398438 7.921875 -3.953125 C 8.710938 -3.503906 9.597656 -3.28125 10.578125 -3.28125 Z M 10.578125 -3.28125 "/></g></g></g><g fill="#1a2a5f" fill-opacity="1"><g transform="translate(1.684423, 123.651691)"><g><path d="M 24.03125 -22.921875 L 14.046875 0 L 9.859375 0 L -0.15625 -22.921875 L 4.453125 -22.921875 L 12.078125 -5.234375 L 19.78125 -22.921875 Z M 24.03125 -22.921875 "/></g></g></g><g fill="#1a2a5f" fill-opacity="1"><g transform="translate(23.758697, 123.651691)"><g><path d="M 19.125 -8.640625 C 19.125 -8.359375 19.101562 -7.957031 19.0625 -7.4375 L 5.34375 -7.4375 C 5.582031 -6.144531 6.207031 -5.125 7.21875 -4.375 C 8.238281 -3.625 9.5 -3.25 11 -3.25 C 12.925781 -3.25 14.507812 -3.878906 15.75 -5.140625 L 17.953125 -2.625 C 17.160156 -1.6875 16.164062 -0.972656 14.96875 -0.484375 C 13.769531 -0.00390625 12.414062 0.234375 10.90625 0.234375 C 8.988281 0.234375 7.296875 -0.144531 5.828125 -0.90625 C 4.367188 -1.675781 3.238281 -2.742188 2.4375 -4.109375 C 1.644531 -5.472656 1.25 -7.019531 1.25 -8.75 C 1.25 -10.445312 1.632812 -11.976562 2.40625 -13.34375 C 3.175781 -14.707031 4.25 -15.769531 5.625 -16.53125 C 7.007812 -17.300781 8.5625 -17.6875 10.28125 -17.6875 C 11.988281 -17.6875 13.507812 -17.304688 14.84375 -16.546875 C 16.1875 -15.796875 17.234375 -14.738281 17.984375 -13.375 C 18.742188 -12.007812 19.125 -10.429688 19.125 -8.640625 Z M 10.28125 -14.40625 C 8.96875 -14.40625 7.859375 -14.015625 6.953125 -13.234375 C 6.046875 -12.460938 5.5 -11.4375 5.3125 -10.15625 L 15.234375 -10.15625 C 15.054688 -11.414062 14.519531 -12.4375 13.625 -13.21875 C 12.726562 -14.007812 11.613281 -14.40625 10.28125 -14.40625 Z M 10.28125 -14.40625 "/></g></g></g><g fill="#1a2a5f" fill-opacity="1"><g transform="translate(44.129909, 123.651691)"><g><path d="M 12.609375 -17.6875 C 14.816406 -17.6875 16.582031 -17.039062 17.90625 -15.75 C 19.238281 -14.46875 19.90625 -12.554688 19.90625 -10.015625 L 19.90625 0 L 15.8125 0 L 15.8125 -9.5 C 15.8125 -11.03125 15.453125 -12.179688 14.734375 -12.953125 C 14.015625 -13.722656 12.988281 -14.109375 11.65625 -14.109375 C 10.15625 -14.109375 8.96875 -13.65625 8.09375 -12.75 C 7.21875 -11.84375 6.78125 -10.539062 6.78125 -8.84375 L 6.78125 0 L 2.6875 0 L 2.6875 -17.484375 L 6.578125 -17.484375 L 6.578125 -15.234375 C 7.253906 -16.035156 8.101562 -16.644531 9.125 -17.0625 C 10.15625 -17.476562 11.316406 -17.6875 12.609375 -17.6875 Z M 12.609375 -17.6875 "/></g></g></g><g fill="#1a2a5f" fill-opacity="1"><g transform="translate(66.564449, 123.651691)"><g><path d="M 13.203125 -0.953125 C 12.722656 -0.554688 12.140625 -0.257812 11.453125 -0.0625 C 10.765625 0.132812 10.035156 0.234375 9.265625 0.234375 C 7.347656 0.234375 5.863281 -0.265625 4.8125 -1.265625 C 3.769531 -2.273438 3.25 -3.742188 3.25 -5.671875 L 3.25 -14.078125 L 0.359375 -14.078125 L 0.359375 -17.359375 L 3.25 -17.359375 L 3.25 -21.359375 L 7.34375 -21.359375 L 7.34375 -17.359375 L 12.015625 -17.359375 L 12.015625 -14.078125 L 7.34375 -14.078125 L 7.34375 -5.765625 C 7.34375 -4.910156 7.546875 -4.257812 7.953125 -3.8125 C 8.367188 -3.363281 8.972656 -3.140625 9.765625 -3.140625 C 10.679688 -3.140625 11.441406 -3.378906 12.046875 -3.859375 Z M 13.203125 -0.953125 "/></g></g></g><g fill="#1a2a5f" fill-opacity="1"><g transform="translate(80.450941, 123.651691)"><g><path d="M 19.609375 -17.484375 L 19.609375 0 L 15.71875 0 L 15.71875 -2.234375 C 15.0625 -1.441406 14.242188 -0.832031 13.265625 -0.40625 C 12.285156 0.0195312 11.226562 0.234375 10.09375 0.234375 C 7.75 0.234375 5.90625 -0.414062 4.5625 -1.71875 C 3.21875 -3.019531 2.546875 -4.945312 2.546875 -7.5 L 2.546875 -17.484375 L 6.640625 -17.484375 L 6.640625 -8.0625 C 6.640625 -6.488281 6.992188 -5.3125 7.703125 -4.53125 C 8.421875 -3.757812 9.429688 -3.375 10.734375 -3.375 C 12.203125 -3.375 13.367188 -3.828125 14.234375 -4.734375 C 15.097656 -5.640625 15.53125 -6.941406 15.53125 -8.640625 L 15.53125 -17.484375 Z M 19.609375 -17.484375 "/></g></g></g><g fill="#1a2a5f" fill-opacity="1"><g transform="translate(102.754473, 123.651691)"><g><path d="M 6.578125 -14.9375 C 7.753906 -16.769531 9.832031 -17.6875 12.8125 -17.6875 L 12.8125 -13.78125 C 12.457031 -13.851562 12.140625 -13.890625 11.859375 -13.890625 C 10.265625 -13.890625 9.019531 -13.425781 8.125 -12.5 C 7.226562 -11.570312 6.78125 -10.234375 6.78125 -8.484375 L 6.78125 0 L 2.6875 0 L 2.6875 -17.484375 L 6.578125 -17.484375 Z M 6.578125 -14.9375 "/></g></g></g><g fill="#1a2a5f" fill-opacity="1"><g transform="translate(116.182451, 123.651691)"><g><path d="M 19.125 -8.640625 C 19.125 -8.359375 19.101562 -7.957031 19.0625 -7.4375 L 5.34375 -7.4375 C 5.582031 -6.144531 6.207031 -5.125 7.21875 -4.375 C 8.238281 -3.625 9.5 -3.25 11 -3.25 C 12.925781 -3.25 14.507812 -3.878906 15.75 -5.140625 L 17.953125 -2.625 C 17.160156 -1.6875 16.164062 -0.972656 14.96875 -0.484375 C 13.769531 -0.00390625 12.414062 0.234375 10.90625 0.234375 C 8.988281 0.234375 7.296875 -0.144531 5.828125 -0.90625 C 4.367188 -1.675781 3.238281 -2.742188 2.4375 -4.109375 C 1.644531 -5.472656 1.25 -7.019531 1.25 -8.75 C 1.25 -10.445312 1.632812 -11.976562 2.40625 -13.34375 C 3.175781 -14.707031 4.25 -15.769531 5.625 -16.53125 C 7.007812 -17.300781 8.5625 -17.6875 10.28125 -17.6875 C 11.988281 -17.6875 13.507812 -17.304688 14.84375 -16.546875 C 16.1875 -15.796875 17.234375 -14.738281 17.984375 -13.375 C 18.742188 -12.007812 19.125 -10.429688 19.125 -8.640625 Z M 10.28125 -14.40625 C 8.96875 -14.40625 7.859375 -14.015625 6.953125 -13.234375 C 6.046875 -12.460938 5.5 -11.4375 5.3125 -10.15625 L 15.234375 -10.15625 C 15.054688 -11.414062 14.519531 -12.4375 13.625 -13.21875 C 12.726562 -14.007812 11.613281 -14.40625 10.28125 -14.40625 Z M 10.28125 -14.40625 "/></g></g></g></g></g></svg>